<svg width="302" height="301" viewBox="0 0 302 301" fill="none" xmlns="http://www.w3.org/2000/svg">
<path d="M112.593 14V80.5325C112.593 82.0827 110.906 83.0436 109.572 82.2525L53.5705 49.0226C52.6342 48.467 51.4254 48.7625 50.8509 49.6874L12.0956 112.092C11.4973 113.056 11.8189 114.323 12.8041 114.885L71.2072 148.181C72.5379 148.939 72.5568 150.851 71.2415 151.636L13.4445 186.123C12.4988 186.687 12.1872 187.91 12.7476 188.858L49.5904 251.192C50.167 252.167 51.4383 252.469 52.3922 251.857L109.513 215.205C110.844 214.351 112.593 215.307 112.593 216.888V287C112.593 288.105 113.488 289 114.593 289H187.407C188.512 289 189.407 288.105 189.407 287V219.287C189.407 217.724 191.121 216.765 192.453 217.583L248.449 251.955C249.375 252.523 250.586 252.248 251.175 251.335L289.893 191.343C290.501 190.401 290.217 189.144 289.263 188.556L229.424 151.636C228.136 150.842 228.163 148.961 229.473 148.203L289.223 113.642C290.197 113.079 290.515 111.824 289.926 110.865L252.416 49.7523C251.832 48.8011 250.582 48.5118 249.64 49.1096L193.717 84.5811C192.386 85.4257 190.646 84.469 190.646 82.8922V14C190.646 12.8954 189.751 12 188.646 12H114.593C113.488 12 112.593 12.8954 112.593 14Z" stroke="black" stroke-width="23" stroke-linejoin="round"/>
</svg>
